name C:\Users\antoi\Documents\MyRepositories\upper-imu-dc\Results\main_tracking\Case_93\kinematics.mot
datacolumns 43
datarows 13
range 5.26000000 5.50000000
endheader 
time	clav_prot	clav_elev	scapula_abduction	scapula_elevation	scapula_upward_rot	scapula_winging	plane_elv	shoulder_elv	axial_rot	TrapeziusScapula_M/activation	TrapeziusScapula_S/activation	TrapeziusScapula_I/activation	TrapeziusClavicle_S/activation	SerratusAnterior_I/activation	SerratusAnterior_M/activation	SerratusAnterior_S/activation	Rhomboideus_S/activation	Rhomboideus_I/activation	LevatorScapulae/activation	Coracobrachialis/activation	DeltoideusClavicle_A/activation	DeltoideusScapula_P/activation	DeltoideusScapula_M/activation	LatissimusDorsi_S/activation	LatissimusDorsi_M/activation	LatissimusDorsi_I/activation	PectoralisMajorClavicle_S/activation	PectoralisMajorThorax_I/activation	PectoralisMajorThorax_M/activation	TeresMajor/activation	Infraspinatus_I/activation	Infraspinatus_S/activation	PectoralisMinor/activation	TeresMinor/activation	Subscapularis_S/activation	Subscapularis_M/activation	Subscapularis_I/activation	Supraspinatus_P/activation	Supraspinatus_A/activation	TRIlong/activation	BIC_long/activation	BIC_brevis/activation	
          5.26000000	        -45.71383562	          4.52624088	        -28.45342127	         -5.45821821	         47.02550042	        -12.03952082	         27.42490034	         78.76926175	         -2.54773918	          0.01787848	          0.07705634	          0.01578237	          0.02610768	          0.06366623	          0.08334664	          0.01364107	          0.01501398	          0.01300356	          0.01507303	          0.06181867	          0.11296514	          0.01046441	          0.09528507	          0.01106923	          0.01054973	          0.01068527	          0.03393960	          0.01104159	          0.01850213	          0.01098077	          0.03006834	          0.01810780	          0.01146390	          0.01362328	          0.01905431	          0.01453659	          0.01185806	          0.03775920	          0.06372322	          0.01039668	          0.05166061	          0.05718558	
          5.28000000	        -45.96870270	          4.64215801	        -28.60460869	         -5.42549835	         47.36087990	        -12.28651155	         28.00719212	         78.97674355	         -3.03482384	          0.01773619	          0.07685208	          0.01586388	          0.02597524	          0.06407264	          0.08336777	          0.01358724	          0.01490748	          0.01293714	          0.01490680	          0.06196712	          0.11283539	          0.01046988	          0.09525831	          0.01106971	          0.01055040	          0.01068441	          0.03382993	          0.01104558	          0.01844969	          0.01098930	          0.03101160	          0.01811282	          0.01149270	          0.01371778	          0.01880839	          0.01443364	          0.01182373	          0.03752459	          0.06294365	          0.01040309	          0.05076676	          0.05754850	
          5.30000000	        -46.21580035	          4.74921265	        -28.74577666	         -5.39709981	         47.68999754	        -12.52506746	         28.57042876	         79.18662078	         -3.53554566	          0.01761492	          0.07676321	          0.01595493	          0.02584757	          0.06465698	          0.08345058	          0.01352134	          0.01479089	          0.01286211	          0.01472618	          0.06214398	          0.11285178	          0.01047482	          0.09545142	          0.01106958	          0.01055055	          0.01068257	          0.03372486	          0.01104668	          0.01837872	          0.01099632	          0.03194953	          0.01810706	          0.01151862	          0.01380909	          0.01858018	          0.01433452	          0.01178930	          0.03732483	          0.06225181	          0.01040883	          0.04993213	          0.05794241	
          5.32000000	        -46.45605864	          4.84697021	        -28.87722099	         -5.37351576	         48.01417846	        -12.75565660	         29.11532199	         79.40022548	         -4.04306149	          0.01750724	          0.07674898	          0.01604369	          0.02573526	          0.06534323	          0.08365390	          0.01345254	          0.01467385	          0.01278636	          0.01454905	          0.06239960	          0.11303481	          0.01047894	          0.09579804	          0.01106800	          0.01054984	          0.01067965	          0.03365890	          0.01104599	          0.01831639	          0.01100175	          0.03284394	          0.01808122	          0.01154157	          0.01389330	          0.01837612	          0.01424302	          0.01175592	          0.03716473	          0.06166972	          0.01041379	          0.04916709	          0.05840773	
          5.34000000	        -46.69014766	          4.93581265	        -28.99907237	         -5.35465504	         48.33479441	        -12.97891876	         29.64261945	         79.61919446	         -4.54932347	          0.01740695	          0.07675483	          0.01611863	          0.02564530	          0.06602437	          0.08399392	          0.01338995	          0.01456636	          0.01271778	          0.01439205	          0.06272767	          0.11333199	          0.01048235	          0.09619061	          0.01106459	          0.01054822	          0.01067581	          0.03364369	          0.01104473	          0.01828180	          0.01100615	          0.03365655	          0.01802983	          0.01156204	          0.01396823	          0.01819829	          0.01416196	          0.01172512	          0.03703066	          0.06117298	          0.01041817	          0.04845130	          0.05893793	
          5.36000000	        -46.91843772	          5.01689686	        -29.11140702	         -5.33985282	         48.65303010	        -13.19558906	         30.15326165	         79.84518369	         -5.04525097	          0.01730937	          0.07671465	          0.01617021	          0.02558109	          0.06658332	          0.08445343	          0.01334170	          0.01447722	          0.01266313	          0.01426839	          0.06308597	          0.11363429	          0.01048541	          0.09650787	          0.01105944	          0.01054589	          0.01067150	          0.03367416	          0.01104425	          0.01828710	          0.01101047	          0.03435479	          0.01795126	          0.01158105	          0.01403331	          0.01804600	          0.01409332	          0.01169852	          0.03689743	          0.06070803	          0.01042236	          0.04774680	          0.05949453	
          5.38000000	        -47.14099500	          5.09187891	        -29.21429774	         -5.32804919	         48.96969766	        -13.40636116	         30.64835890	         80.07954774	         -5.52137327	          0.01721148	          0.07655247	          0.01619225	          0.02554246	          0.06690648	          0.08499801	          0.01331438	          0.01441267	          0.01262715	          0.01418665	          0.06342003	          0.11382087	          0.01048865	          0.09662522	          0.01105306	          0.01054321	          0.01066731	          0.03373916	          0.01104597	          0.01834093	          0.01101580	          0.03491957	          0.01784714	          0.01160008	          0.01408926	          0.01791695	          0.01403817	          0.01167748	          0.03673747	          0.06021688	          0.01042689	          0.04701412	          0.06002357	
          5.40000000	        -47.35762500	          5.16248197	        -29.30780322	         -5.31808626	         49.28515743	        -13.61173391	         31.12906552	         80.32301581	         -5.96895948	          0.01711219	          0.07621025	          0.01618328	          0.02552646	          0.06692877	          0.08558074	          0.01331186	          0.01437491	          0.01261138	          0.01414935	          0.06367012	          0.11379835	          0.01049252	          0.09645757	          0.01104616	          0.01054062	          0.01066382	          0.03382418	          0.01105104	          0.01844889	          0.01102300	          0.03534656	          0.01772387	          0.01162067	          0.01413808	          0.01780704	          0.01399601	          0.01166257	          0.03653119	          0.05965110	          0.01043219	          0.04622621	          0.06047177	
          5.42000000	        -47.56795911	          5.23002833	        -29.39191561	         -5.30904058	         49.59936104	        -13.81188666	         31.59644916	         80.57547714	         -6.38113036	          0.01701213	          0.07566191	          0.01614606	          0.02553137	          0.06665190	          0.08618364	          0.01333515	          0.01436206	          0.01261412	          0.01415356	          0.06382399	          0.11356032	          0.01049716	          0.09599799	          0.01103931	          0.01053840	          0.01066133	          0.03392982	          0.01106010	          0.01861831	          0.01103224	          0.03565082	          0.01758888	          0.01164383	          0.01418116	          0.01771377	          0.01396542	          0.01165330	          0.03628059	          0.05900741	          0.01043841	          0.04538859	          0.06082861	
          5.44000000	        -47.77152491	          5.29514748	        -29.46646562	         -5.30043925	         49.91199286	        -14.00662380	         32.05142817	         80.83602070	         -6.75365902	          0.01691296	          0.07493084	          0.01608558	          0.02556040	          0.06614682	          0.08684215	          0.01338337	          0.01436978	          0.01263151	          0.01419350	          0.06393474	          0.11320875	          0.01050217	          0.09533828	          0.01103244	          0.01053642	          0.01065968	          0.03408086	          0.01107313	          0.01886093	          0.01104276	          0.03586028	          0.01744804	          0.01166962	          0.01421819	          0.01763760	          0.01394458	          0.01164816	          0.03601190	          0.05834016	          0.01044522	          0.04454366	          0.06114114	
          5.46000000	        -47.96776961	          5.35785731	        -29.53104801	         -5.29221911	         50.22264967	        -14.19543972	         32.49486764	         81.10323245	         -7.08502721	          0.01681657	          0.07407292	          0.01600735	          0.02562071	          0.06550008	          0.08762867	          0.01345529	          0.01439352	          0.01265960	          0.01426366	          0.06408716	          0.11291818	          0.01050679	          0.09460599	          0.01102499	          0.01053429	          0.01065839	          0.03431211	          0.01108984	          0.01919001	          0.01105331	          0.03600096	          0.01730517	          0.01169740	          0.01424734	          0.01758059	          0.01393192	          0.01164549	          0.03575896	          0.05771702	          0.01045203	          0.04373912	          0.06148900	
          5.48000000	        -48.15605029	          5.41790093	        -29.58500931	         -5.28450549	         50.53097916	        -14.37765859	         32.92778510	         81.37560232	         -7.37584254	          0.01672514	          0.07314909	          0.01591812	          0.02571687	          0.06479568	          0.08857610	          0.01354798	          0.01442819	          0.01269425	          0.01435712	          0.06430695	          0.11277290	          0.01051067	          0.09391136	          0.01101663	          0.01053173	          0.01065701	          0.03463264	          0.01110943	          0.01960816	          0.01106303	          0.03610026	          0.01716593	          0.01172623	          0.01426786	          0.01754214	          0.01392545	          0.01164393	          0.03554756	          0.05717691	          0.01045843	          0.04301119	          0.06192653	
          5.50000000	        -48.33564434	          5.47504490	        -29.62749788	         -5.27741411	         50.83675629	        -14.55256640	         33.35146911	         81.65184226	         -7.62810921	          0.01664117	          0.07221387	          0.01582631	          0.02583970	          0.06409547	          0.08966231	          0.01365519	          0.01446715	          0.01273061	          0.01446307	          0.06458558	          0.11278117	          0.01051381	          0.09332221	          0.01100748	          0.01052872	          0.01065535	          0.03502402	          0.01113077	          0.02009192	          0.01107179	          0.03617832	          0.01703859	          0.01175521	          0.01428070	          0.01751792	          0.01392301	          0.01164298	          0.03536929	          0.05670265	          0.01046436	          0.04234300	          0.06241776	
